HIERARCHY
ROOT pelvis
{
	OFFSET 0.000000 0.000000 0.000000
	CHANNELS 6 Xposition Yposition Zposition Zrotation Xrotation Yrotation
	JOINT lfemur
	{
		OFFSET 11.446000 0.000000 0.000000
		CHANNELS 3 Zrotation Xrotation Yrotation
		JOINT ltibia
		{
			OFFSET 0.000000 -42.030400 0.000000
			CHANNELS 3 Zrotation Xrotation Yrotation
			JOINT lfoot
			{
				OFFSET 0.000000 -39.930200 0.000000
				CHANNELS 3 Zrotation Xrotation Yrotation
				JOINT ltoes
				{
					OFFSET 0.000000 0.000000 11.775800
					CHANNELS 3 Zrotation Xrotation Yrotation
					End Site
					{
					    OFFSET 0.000000 0.000000 5.000000
					}
				}
			}
		}
	}
	JOINT rfemur
	{
		OFFSET -11.446000 0.000000 0.000000
		CHANNELS 3 Zrotation Xrotation Yrotation
		JOINT rtibia
		{
			OFFSET 0.000000 -42.030400 0.000000
			CHANNELS 3 Zrotation Xrotation Yrotation
			JOINT rfoot
			{
				OFFSET 0.000000 -39.930200 0.000000
				CHANNELS 3 Zrotation Xrotation Yrotation
				JOINT rtoes
				{
					OFFSET 0.000000 0.000000 11.775800
					CHANNELS 3 Zrotation Xrotation Yrotation
					End Site
					{
					    OFFSET 0.000000 0.000000 5.000000
					}
				}
			}
		}
	}
	JOINT thorax
	{
		OFFSET 0.000000 11.255600 -5.000000
		CHANNELS 3 Zrotation Xrotation Yrotation
		JOINT head
		{
			OFFSET 0.000000 43.799300 0.000000
			CHANNELS 3 Zrotation Xrotation Yrotation
			End Site
			{
			    OFFSET 0.000000 5.000000 0.000000
			}
		}
		JOINT lclavicle
		{
			OFFSET 0.000000 39.863000 0.000000
			CHANNELS 3 Zrotation Xrotation Yrotation
			JOINT lhumerus
			{
				OFFSET 17.380600 4.958300 0.000000
				CHANNELS 3 Zrotation Xrotation Yrotation
				JOINT lradius
				{
					OFFSET 0.000000 -27.561300 0.000000
					CHANNELS 3 Zrotation Xrotation Yrotation
					JOINT lhand
					{
						OFFSET 0.000000 -26.933000 0.000000
						CHANNELS 3 Zrotation Xrotation Yrotation
						End Site
						{
						    OFFSET 0.000000 -5.000000 0.000000
						}
					}
				}
			}
		}
		JOINT rclavicle
		{
			OFFSET 0.000000 39.863000 0.000000
			CHANNELS 3 Zrotation Xrotation Yrotation
			JOINT rhumerus
			{
				OFFSET -17.380600 4.958300 0.000000
				CHANNELS 3 Zrotation Xrotation Yrotation
				JOINT rradius
				{
					OFFSET 0.000000 -27.561300 0.000000
					CHANNELS 3 Zrotation Xrotation Yrotation
					JOINT rhand
					{
						OFFSET 0.000000 -26.933000 0.000000
						CHANNELS 3 Zrotation Xrotation Yrotation
						End Site
						{
						    OFFSET 0.000000 -5.000000 0.000000
						}
					}
				}
			}
		}
	}
}
MOTION
Frames:	20
Frame Time:	0.0333333
189.731 85.6245 -88.3069 3.20376 0.8163 93.8856 -1.36572 -0.665776 31.2162 1.8041 35.6307 22.0445 -12.1212 -7.66765 -1.09719 8.34787e-016 -5 9.57811e-015 6.59834 -11.0505 -0.365536 3.54606 20.6699 -34.678 -7.19928 -1.01691 -0.306127 1.47097e-015 -5 3.1927e-015 -6.40691 6.14405 -1.31163 5.91078 10.7301 -18.4971 7.95139e-016 -5.71506e-015 3.97569e-016 15.5802 -15.4809 61.9065 4.58059 -0.103575 -112.889 7.61447 -7.43105 -9.08468 7.95139e-016 -5.71506e-015 3.97569e-016 -11.2995 -2.88833 -33.5237 12.7054 -1.59399 65.4214 -1.95108 -2.37009 9.80358 
190.878 85.5664 -88.5337 3.80277 0.0838687 90.2785 1.53755 -3.33019 32.028 1.58745 45.9435 21.1773 -11.2412 -6.21706 -1.07421 1.59028e-015 -5 -0 6.79413 -10.0593 -0.0835522 2.99254 21.5155 -31.1013 -6.27029 -1.43006 -0.292569 -7.95139e-016 -5 -0 -5.50103 6.10466 -1.23053 5.26284 11.5622 -18.0257 -8.18987e-033 2.36057e-015 1.98785e-016 15.2475 -15.3694 61.312 4.09216 -0.120019 -112.928 8.06584 -7.7564 -9.01078 -8.18987e-033 2.36057e-015 1.98785e-016 -11.4153 -2.75839 -32.1287 13.1009 -2.3554 64.2806 -1.82259 -2.43012 9.81149 
191.888 85.2539 -89.1057 4.36682 0.17223 86.5078 4.57836 -6.94233 31.138 1.85175 56.7939 20.6971 -5.98778 -3.34659 -0.687202 8.34787e-016 -5 9.57811e-015 7.19119 -9.84228 -0.390625 2.4336 23.7291 -26.9635 -6.06515 -2.84297 -0.40896 -1.58956e-016 -5 -6.38541e-015 -4.42014 6.62517 -1.39844 4.88707 11.4758 -17.5293 5.93119e-032 4.27387e-015 -7.95139e-016 15.3627 -15.5543 60.7054 3.36687 -0.00326898 -112.159 8.39588 -7.92923 -8.96223 5.93119e-032 4.27387e-015 -7.95139e-016 -11.5444 -3.19362 -30.5746 13.6185 -3.18573 62.8998 -1.66852 -2.74261 9.81689 
192.653 84.6674 -89.4988 4.67814 -0.955378 82.5047 6.87082 -10.8642 28.6492 2.15341 65.6358 18.2909 -1.1475 -0.0943259 -0.46787 -7.95139e-015 -5 -0 7.71255 -10.681 -1.12726 1.57619 27.3629 -22.3125 -5.38952 -4.42345 -0.475916 -1.70958e-015 -5 3.1927e-015 -3.28705 7.44907 -1.56875 4.86617 10.8818 -16.9503 -1.19271e-015 -2.5842e-015 -3.18055e-015 15.5789 -16.0739 60.4668 2.95238 -0.134115 -110.747 8.27241 -7.97618 -8.96923 -1.19271e-015 -2.5842e-015 -3.18055e-015 -11.4892 -4.32292 -30.2026 13.7499 -3.62241 62.7772 -1.30808 -2.99796 9.83885 
193.404 84.2696 -90.1541 4.83474 -1.44083 77.9694 7.37259 -13.6377 25.2515 2.16344 69.6644 13.3042 1.21914 2.21287 -0.366245 -3.18055e-015 -5 -0 7.89067 -11.3007 -1.25066 0.457992 30.0655 -17.5583 -4.87416 -5.48178 -0.50389 -2.50472e-015 -5 3.1927e-015 -2.65826 8.1256 -1.5411 5.01812 10.6783 -16.5449 -7.95139e-016 -1.19271e-015 -3.18055e-015 15.6928 -16.8247 60.6582 3.04116 -0.0408312 -109.726 8.20454 -7.95182 -8.98166 -7.95139e-016 -1.19271e-015 -3.18055e-015 -11.4259 -5.63845 -30.4782 13.6552 -3.81794 63.0598 -1.2291 -2.93563 9.84594 
194.379 84.2827 -90.9445 5.02629 -1.5733 73.0493 6.42551 -15.1791 21.1849 1.81194 69.8254 8.74479 1.84289 2.93803 -0.219729 -1.13305e-015 -5 -1.59635e-015 7.5117 -10.9589 -0.197559 -0.317777 30.8647 -13.1581 -4.5504 -5.72312 -0.497525 7.95139e-016 -5 -0 -2.39165 8.36459 -1.41594 5.21632 11.4911 -16.6296 -1.98785e-016 -9.93923e-016 9.54166e-015 15.3218 -17.2084 61.0199 3.37602 -0.152074 -109.574 8.13918 -7.99402 -8.98382 -1.98785e-016 -9.93923e-016 9.54166e-015 -11.6232 -6.58863 -30.5037 13.5648 -3.90687 62.5904 -1.75567 -2.80526 9.80961 
195.554 84.5145 -91.7525 5.16074 -1.74008 67.8439 4.96269 -16.2784 16.4501 1.48707 68.4041 6.69739 2.36547 2.47522 -0.129153 -2.2115e-015 -5 1.99544e-015 6.96474 -10.1242 1.34141 -0.859921 30.5636 -8.89586 -4.11786 -5.41957 -0.459607 1.31201e-015 -5 -3.1927e-015 -1.99442 8.26717 -1.33941 5.4362 12.9462 -17.1095 -4.96962e-017 9.93923e-017 -0 14.7813 -17.1242 61.4499 3.6532 -0.138295 -109.859 8.07604 -7.97029 -8.99362 -4.96962e-017 9.93923e-017 -0 -12.0521 -7.24935 -30.803 13.4203 -3.82609 62.2614 -2.21329 -2.86274 9.77625 
196.772 84.7482 -92.5154 5.01821 -2.07219 62.3949 3.50495 -17.3151 11.1619 1.34955 66.347 6.82188 2.61449 1.10235 -0.0881198 -1.45115e-015 -5 1.59635e-015 6.6278 -9.33655 2.92333 -1.46804 29.7715 -4.75293 -3.74778 -4.98692 -0.460513 -1.0734e-015 -5 -3.1927e-015 -1.5053 8.14096 -1.315 5.62218 14.0574 -17.5824 -3.47873e-016 -1.73937e-016 9.54166e-015 14.4031 -16.7683 61.8749 3.74286 -0.034334 -110.05 7.95654 -7.8693 -9.01654 -3.47873e-016 -1.73937e-016 9.54166e-015 -12.3979 -7.96717 -31.2236 13.3048 -3.90541 62.5784 -2.02882 -2.81528 9.79004 
198.01 85.0352 -93.2647 4.65775 -2.26532 56.6819 1.90688 -17.8775 5.36116 1.24074 62.7989 7.5032 1.98679 -0.560169 -0.0521648 -9.40253e-015 -5 1.59635e-015 6.19287 -8.9102 4.33953 -2.15701 28.9259 -0.206853 -3.6473 -4.40793 -0.528855 -1.03375e-015 -5 6.38541e-015 -1.34985 8.02809 -1.25576 5.55489 14.3426 -17.7894 -9.93923e-017 5.96354e-016 3.18055e-015 14.1096 -16.2141 62.2188 3.63342 -0.0582125 -110.068 7.81449 -7.82581 -9.03538 -9.93923e-017 5.96354e-016 3.18055e-015 -12.7155 -8.6956 -30.1868 13.5577 -4.48173 62.1974 -1.82999 -2.55944 9.8083 
199.319 85.4255 -94.0292 4.2604 -2.12144 50.6252 0.102247 -17.7008 -1.28602 1.06289 57.4311 6.65931 1.08621 -1.74347 -0.0175895 3.45882e-015 -5 3.1927e-015 5.25979 -8.7051 5.37519 -2.74774 27.6914 5.37069 -3.63995 -3.54217 -0.618242 -2.78262e-016 -5 -3.1927e-015 -1.53085 7.73384 -1.08519 5.10276 14.1291 -17.674 -3.97569e-016 -3.97569e-016 1.90833e-014 13.6513 -15.4809 62.4209 3.38986 -0.129333 -109.88 7.69035 -7.90647 -9.0425 -3.97569e-016 -3.97569e-016 1.90833e-014 -13.4037 -9.1826 -27.2917 14.0751 -5.35018 60.4099 -2.16317 -2.64149 9.78305 
200.659 85.6424 -94.7645 3.72495 -1.99538 44.3442 -1.06936 -17.2746 -8.51945 0.720717 51.8551 2.49989 0.859927 -2.68725 0.0352823 3.73708e-015 -5 6.38541e-015 4.42671 -9.13272 6.21488 -3.211 27.0807 11.2069 -3.64141 -2.92391 -0.736706 -1.31201e-015 -5 3.1927e-015 -1.44112 7.38865 -0.872928 4.78122 13.8321 -17.2245 1.98785e-016 -3.97569e-016 -3.18055e-015 13.336 -14.8134 62.4293 3.14024 -0.0845371 -109.426 7.57598 -8.03956 -9.04775 1.98785e-016 -3.97569e-016 -3.18055e-015 -14.2004 -9.50161 -24.7232 14.363 -6.06784 58.8076 -2.34742 -3.13201 9.76078 
202.004 85.4013 -95.4198 2.87005 -2.32219 38.1788 -0.640143 -17.3107 -14.347 0.154364 48.0259 -5.69212 1.8383 -4.11203 0.142523 3.45882e-015 -5 3.1927e-015 4.50576 -10.6641 7.30311 -3.86205 28.8057 16.4386 -2.71898 -3.51646 -0.826281 -2.78262e-016 -5 -3.1927e-015 -0.763493 7.46673 -0.779652 5.37115 13.5185 -16.6462 8.82781e-032 -7.95139e-016 6.36111e-015 13.7943 -14.5221 62.3582 3.01797 -0.00301454 -109.092 7.47015 -8.13499 -9.05602 8.82781e-032 -7.95139e-016 6.36111e-015 -14.2877 -9.93367 -24.0444 14.3304 -6.50381 58.3723 -1.9512 -3.1712 9.7887 
203.429 84.8423 -96.0159 1.79384 -2.97292 32.0899 1.28783 -17.8811 -16.5649 -0.534922 46.1437 -16.7932 3.94651 -5.50257 0.333508 1.22219e-016 -5 2.61901e-016 5.33475 -12.944 9.15878 -4.74495 32.4748 21.5096 -0.142908 -5.14232 -0.746594 -1.35166e-015 -5 -6.38541e-015 0.209529 8.00122 -0.79295 6.68234 13.282 -16.2395 3.97569e-016 0 -0 14.8138 -14.5282 62.5545 3.07562 -0.0321057 -109.313 7.33606 -8.18157 -9.06807 3.97569e-016 0 -0 -13.751 -10.5236 -23.9139 14.2606 -6.75822 57.7733 -1.903 -2.46065 9.80493 
204.95 84.3107 -96.618 0.749815 -3.37245 25.4968 3.82161 -18.2958 -14.9457 -1.12503 44.9868 -27.6398 6.04538 -6.01194 0.528766 -1.45115e-015 -5 1.59635e-015 6.18655 -15.1311 12.6052 -4.97967 35.6139 25.9931 2.44112 -6.35678 -0.601701 -2.1468e-015 -5 -6.38541e-015 1.04159 8.39211 -0.686237 7.67402 13.4331 -15.8607 3.97569e-016 -7.95139e-016 -0 15.4499 -14.3799 63.1576 3.19836 -0.103657 -109.71 7.21569 -8.17103 -9.08114 3.97569e-016 -7.95139e-016 -0 -13.6729 -11.1318 -23.8256 14.2365 -6.52414 57.2495 -2.66074 -2.01285 9.76199 
206.474 84.0467 -97.2521 0.102156 -3.15802 18.2646 5.86595 -17.5951 -10.7171 -1.42908 43.3672 -34.3494 7.48047 -6.25128 0.701914 2.78262e-016 -5 3.1927e-015 6.64356 -17.1078 17.9532 -3.91208 37.3695 28.3408 4.73443 -6.68931 -0.453428 2.1468e-015 -5 6.38541e-015 1.03836 8.32767 -0.411297 7.90952 14.0138 -15.1154 -4.41391e-032 -7.95139e-016 -3.18055e-015 15.4182 -13.8294 63.7743 3.19209 -0.0875564 -109.741 7.31859 -8.04653 -9.07743 -4.41391e-032 -7.95139e-016 -3.18055e-015 -14.4445 -11.7499 -24.9875 13.9865 -5.87264 58.5842 -3.06165 -2.37969 9.72825 
207.94 84.0906 -97.8793 0.131177 -2.64917 11.269 6.474 -15.5278 -5.66555 -1.42929 40.9621 -35.318 8.31533 -6.92657 0.865099 -1.59028e-015 -5 -0 6.51382 -18.5854 23.7749 -2.25238 37.7 29.1008 6.85834 -6.41975 -0.334645 -3.18055e-015 -5 -0 -0.47875 8.28977 -0.324015 8.05477 14.5443 -14.151 -1.98785e-016 -1.59028e-015 1.59028e-015 15.4235 -13.1995 63.9473 3.05817 -0.117369 -109.832 7.55429 -7.97208 -9.05358 -1.98785e-016 -1.59028e-015 1.59028e-015 -15.2621 -12.4738 -26.9363 13.5375 -5.69268 60.7903 -2.50679 -2.74533 9.75716 
209.364 84.3111 -98.4977 0.530417 -2.27028 5.36824 5.68344 -13.1465 -1.48384 -1.23948 38.3097 -32.4869 8.02549 -7.46653 0.822407 2.78262e-016 -5 3.1927e-015 5.99797 -19.403 28.5202 -1.30835 36.8004 30.7351 8.51391 -5.88945 -0.266648 -1.31201e-015 -5 3.1927e-015 -3.23973 8.70134 -0.679633 8.8868 14.5964 -13.6262 3.97569e-016 0 -1.59028e-015 16.2636 -13.1029 63.6901 3.05357 -0.0249194 -110.621 7.52533 -8.29997 -9.03857 3.97569e-016 0 -1.59028e-015 -15.4817 -13.2676 -27.8327 13.4399 -6.23623 60.9834 -2.12158 -2.67153 9.7861 
210.745 84.5388 -99.1924 0.716586 -1.84272 0.448963 4.45349 -11.2001 1.25182 -0.994415 35.4481 -28.596 8.74893 -8.43617 0.948366 2.66368e-015 -5 3.1927e-015 5.57653 -19.8673 31.8415 -1.25074 34.6931 32.7955 9.42129 -4.7984 -0.235129 -0 -5 -0 -6.12948 9.19734 -1.23231 10.4685 14.2942 -13.9675 -3.97569e-016 0 5.96354e-016 17.6262 -13.613 63.0722 3.32347 -0.0782292 -111.621 6.85529 -9.04836 -9.07275 -3.97569e-016 0 5.96354e-016 -15.2736 -13.8236 -27.2277 13.7606 -7.00993 58.5408 -2.5521 -2.75617 9.75334 
212.075 84.7066 -100.009 0.588237 -1.07559 -3.92916 3.54996 -10.2753 3.08451 -0.79279 32.8252 -25.4585 9.0288 -9.03598 1.02007 -0 -5 -0 5.0843 -20.2835 32.8501 -1.55097 31.5525 31.3013 9.53349 -3.06137 -0.215297 5.56525e-016 -5 6.38541e-015 -8.35759 9.3324 -1.67352 12.4624 13.8194 -15.1623 1.59028e-015 -1.59028e-015 -7.95139e-016 19.0856 -14.6392 62.0239 3.6505 -0.00333849 -112.082 6.19758 -9.2954 -9.14296 1.59028e-015 -1.59028e-015 -7.95139e-016 -14.8789 -13.7251 -25.9595 13.9064 -8.30449 54.8189 -2.88607 -3.12525 9.72154 
213.424 84.876 -100.882 0.452361 -0.175127 -7.78959 2.76831 -10.0098 4.35272 -0.706035 30.5326 -22.7024 8.72494 -9.01059 0.983636 5.16876e-016 -5 -3.1927e-015 3.99775 -20.564 30.492 -1.93011 28.052 23.4331 9.36096 -0.79953 -0.15646 -1.03375e-015 -5 6.38541e-015 -9.72796 9.44284 -2.00135 14.4389 12.95 -16.9092 -1.78906e-015 0 -3.18055e-015 20.3383 -16.1996 60.7542 3.75848 0.0450225 -112.052 6.07694 -8.34635 -9.20983 -1.78906e-015 0 -3.18055e-015 -14.3047 -12.8389 -24.4748 13.454 -10.6818 50.556 -2.63554 -3.18618 9.73867 
